<?xml version="1.0" encoding="UTF-8" standalone="no"?>
<!DOCTYPE svg PUBLIC "-//W3C//DTD SVG 1.1//EN"
 "http://www.w3.org/Graphics/SVG/1.1/DTD/svg11.dtd">
<!-- Generated by graphviz version 5.0.0 (20220707.1540)
 -->
<!-- Title: dependencies Pages: 1 -->
<svg width="312pt" height="247pt"
 viewBox="0.00 0.00 312.00 246.80" xmlns="http://www.w3.org/2000/svg" xmlns:xlink="http://www.w3.org/1999/xlink">
<g id="graph0" class="graph" transform="scale(1 1) rotate(0) translate(4 242.8)">
<title>dependencies</title>
<polygon fill="white" stroke="transparent" points="-4,4 -4,-242.8 308,-242.8 308,4 -4,4"/>
<text text-anchor="middle" x="152" y="-8.2" font-family="sans-serif" font-size="14.00">dependencies</text>
<g id="clust1" class="cluster">
<title>cluster_FilterCardModule</title>
<polygon fill="none" stroke="black" stroke-dasharray="1,5" points="8,-32.8 8,-230.8 296,-230.8 296,-32.8 8,-32.8"/>
</g>
<g id="clust4" class="cluster">
<title>cluster_FilterCardModule_imports</title>
<polygon fill="none" stroke="black" points="178,-40.8 178,-92.8 288,-92.8 288,-40.8 178,-40.8"/>
</g>
<g id="clust2" class="cluster">
<title>cluster_FilterCardModule_declarations</title>
<polygon fill="none" stroke="black" points="16,-40.8 16,-92.8 170,-92.8 170,-40.8 16,-40.8"/>
</g>
<g id="clust5" class="cluster">
<title>cluster_FilterCardModule_exports</title>
<polygon fill="none" stroke="black" points="73,-170.8 73,-222.8 231,-222.8 231,-170.8 73,-170.8"/>
</g>
<!-- FilterCardComponent -->
<g id="node1" class="node">
<title>FilterCardComponent</title>
<polygon fill="#ffffb3" stroke="black" points="162.38,-84.8 23.62,-84.8 23.62,-48.8 162.38,-48.8 162.38,-84.8"/>
<text text-anchor="middle" x="93" y="-62.6" font-family="Times,serif" font-size="14.00">FilterCardComponent</text>
</g>
<!-- FilterCardModule -->
<g id="node2" class="node">
<title>FilterCardModule</title>
<polygon fill="#8dd3c7" stroke="black" points="210.6,-149.8 207.6,-153.8 186.6,-153.8 183.6,-149.8 93.4,-149.8 93.4,-113.8 210.6,-113.8 210.6,-149.8"/>
<text text-anchor="middle" x="152" y="-127.6" font-family="Times,serif" font-size="14.00">FilterCardModule</text>
</g>
<!-- FilterCardComponent&#45;&gt;FilterCardModule -->
<g id="edge1" class="edge">
<title>FilterCardComponent&#45;&gt;FilterCardModule</title>
<path fill="none" stroke="black" d="M127.94,-84.91C127.94,-84.91 127.94,-103.79 127.94,-103.79"/>
<polygon fill="black" stroke="black" points="124.44,-103.79 127.94,-113.79 131.44,-103.79 124.44,-103.79"/>
</g>
<!-- FilterCardComponent  -->
<g id="node4" class="node">
<title>FilterCardComponent </title>
<polygon fill="#fb8072" stroke="black" points="223.38,-214.8 80.62,-214.8 80.62,-178.8 223.38,-178.8 223.38,-214.8"/>
<text text-anchor="middle" x="152" y="-192.6" font-family="Times,serif" font-size="14.00">FilterCardComponent </text>
</g>
<!-- FilterCardModule&#45;&gt;FilterCardComponent  -->
<g id="edge3" class="edge">
<title>FilterCardModule&#45;&gt;FilterCardComponent </title>
<path fill="none" stroke="black" stroke-dasharray="5,2" d="M152,-149.91C152,-149.91 152,-168.79 152,-168.79"/>
<polygon fill="black" stroke="black" points="148.5,-168.79 152,-178.79 155.5,-168.79 148.5,-168.79"/>
</g>
<!-- SelectModule -->
<g id="node3" class="node">
<title>SelectModule</title>
<polygon fill="#8dd3c7" stroke="black" points="279.76,-84.8 276.76,-88.8 255.76,-88.8 252.76,-84.8 186.24,-84.8 186.24,-48.8 279.76,-48.8 279.76,-84.8"/>
<text text-anchor="middle" x="233" y="-62.6" font-family="Times,serif" font-size="14.00">SelectModule</text>
</g>
<!-- SelectModule&#45;&gt;FilterCardModule -->
<g id="edge2" class="edge">
<title>SelectModule&#45;&gt;FilterCardModule</title>
<path fill="none" stroke="black" d="M198.33,-84.91C198.33,-84.91 198.33,-103.79 198.33,-103.79"/>
<polygon fill="black" stroke="black" points="194.83,-103.79 198.33,-113.79 201.83,-103.79 194.83,-103.79"/>
</g>
</g>
</svg>
