<?xml version="1.0" encoding="UTF-8" standalone="no"?>
<!DOCTYPE svg PUBLIC "-//W3C//DTD SVG 1.1//EN"
 "http://www.w3.org/Graphics/SVG/1.1/DTD/svg11.dtd">
<!-- Generated by graphviz version 5.0.0 (20220707.1540)
 -->
<!-- Title: dependencies Pages: 1 -->
<svg width="224pt" height="247pt"
 viewBox="0.00 0.00 224.00 246.80" xmlns="http://www.w3.org/2000/svg" xmlns:xlink="http://www.w3.org/1999/xlink">
<g id="graph0" class="graph" transform="scale(1 1) rotate(0) translate(4 242.8)">
<title>dependencies</title>
<polygon fill="white" stroke="transparent" points="-4,4 -4,-242.8 220,-242.8 220,4 -4,4"/>
<text text-anchor="middle" x="108" y="-8.2" font-family="sans-serif" font-size="14.00">dependencies</text>
<g id="clust1" class="cluster">
<title>cluster_NgxInterphaseModule</title>
<polygon fill="none" stroke="black" stroke-dasharray="1,5" points="8,-32.8 8,-230.8 208,-230.8 208,-32.8 8,-32.8"/>
</g>
<g id="clust5" class="cluster">
<title>cluster_NgxInterphaseModule_exports</title>
<polygon fill="none" stroke="black" points="16,-170.8 16,-222.8 200,-222.8 200,-170.8 16,-170.8"/>
</g>
<g id="clust2" class="cluster">
<title>cluster_NgxInterphaseModule_declarations</title>
<polygon fill="none" stroke="black" points="18,-40.8 18,-92.8 198,-92.8 198,-40.8 18,-40.8"/>
</g>
<!-- NgxInterphaseComponent -->
<g id="node1" class="node">
<title>NgxInterphaseComponent</title>
<polygon fill="#ffffb3" stroke="black" points="189.75,-84.8 26.25,-84.8 26.25,-48.8 189.75,-48.8 189.75,-84.8"/>
<text text-anchor="middle" x="108" y="-62.6" font-family="Times,serif" font-size="14.00">NgxInterphaseComponent</text>
</g>
<!-- NgxInterphaseModule -->
<g id="node2" class="node">
<title>NgxInterphaseModule</title>
<polygon fill="#8dd3c7" stroke="black" points="178.97,-149.8 175.97,-153.8 154.97,-153.8 151.97,-149.8 37.03,-149.8 37.03,-113.8 178.97,-113.8 178.97,-149.8"/>
<text text-anchor="middle" x="108" y="-127.6" font-family="Times,serif" font-size="14.00">NgxInterphaseModule</text>
</g>
<!-- NgxInterphaseComponent&#45;&gt;NgxInterphaseModule -->
<g id="edge1" class="edge">
<title>NgxInterphaseComponent&#45;&gt;NgxInterphaseModule</title>
<path fill="none" stroke="black" d="M108,-84.91C108,-84.91 108,-103.79 108,-103.79"/>
<polygon fill="black" stroke="black" points="104.5,-103.79 108,-113.79 111.5,-103.79 104.5,-103.79"/>
</g>
<!-- NgxInterphaseComponent  -->
<g id="node3" class="node">
<title>NgxInterphaseComponent </title>
<polygon fill="#fb8072" stroke="black" points="191.75,-214.8 24.25,-214.8 24.25,-178.8 191.75,-178.8 191.75,-214.8"/>
<text text-anchor="middle" x="108" y="-192.6" font-family="Times,serif" font-size="14.00">NgxInterphaseComponent </text>
</g>
<!-- NgxInterphaseModule&#45;&gt;NgxInterphaseComponent  -->
<g id="edge2" class="edge">
<title>NgxInterphaseModule&#45;&gt;NgxInterphaseComponent </title>
<path fill="none" stroke="black" stroke-dasharray="5,2" d="M108,-149.91C108,-149.91 108,-168.79 108,-168.79"/>
<polygon fill="black" stroke="black" points="104.5,-168.79 108,-178.79 111.5,-168.79 104.5,-168.79"/>
</g>
</g>
</svg>
