<?xml version="1.0" encoding="UTF-8" standalone="no"?>
<!DOCTYPE svg PUBLIC "-//W3C//DTD SVG 1.1//EN"
 "http://www.w3.org/Graphics/SVG/1.1/DTD/svg11.dtd">
<!-- Generated by graphviz version 5.0.0 (20220707.1540)
 -->
<!-- Title: dependencies Pages: 1 -->
<svg width="629pt" height="247pt"
 viewBox="0.00 0.00 629.00 246.80" xmlns="http://www.w3.org/2000/svg" xmlns:xlink="http://www.w3.org/1999/xlink">
<g id="graph0" class="graph" transform="scale(1 1) rotate(0) translate(4 242.8)">
<title>dependencies</title>
<polygon fill="white" stroke="transparent" points="-4,4 -4,-242.8 625,-242.8 625,4 -4,4"/>
<text text-anchor="middle" x="310.5" y="-8.2" font-family="sans-serif" font-size="14.00">dependencies</text>
<g id="clust1" class="cluster">
<title>cluster_ComponentModule</title>
<polygon fill="none" stroke="black" stroke-dasharray="1,5" points="8,-32.8 8,-230.8 613,-230.8 613,-32.8 8,-32.8"/>
</g>
<g id="clust6" class="cluster">
<title>cluster_ComponentModule_imports</title>
<polygon fill="none" stroke="black" points="451,-40.8 451,-92.8 605,-92.8 605,-40.8 451,-40.8"/>
</g>
<g id="clust2" class="cluster">
<title>cluster_ComponentModule_declarations</title>
<polygon fill="none" stroke="black" points="16,-40.8 16,-92.8 443,-92.8 443,-40.8 16,-40.8"/>
</g>
<g id="clust7" class="cluster">
<title>cluster_ComponentModule_exports</title>
<polygon fill="none" stroke="black" points="82,-170.8 82,-222.8 520,-222.8 520,-170.8 82,-170.8"/>
</g>
<!-- ApiComponent -->
<g id="node1" class="node">
<title>ApiComponent</title>
<polygon fill="#ffffb3" stroke="black" points="435.33,-84.8 332.67,-84.8 332.67,-48.8 435.33,-48.8 435.33,-84.8"/>
<text text-anchor="middle" x="384" y="-62.6" font-family="Times,serif" font-size="14.00">ApiComponent</text>
</g>
<!-- ComponentModule -->
<g id="node4" class="node">
<title>ComponentModule</title>
<polygon fill="#8dd3c7" stroke="black" points="380.38,-149.8 377.38,-153.8 356.38,-153.8 353.38,-149.8 255.62,-149.8 255.62,-113.8 380.38,-113.8 380.38,-149.8"/>
<text text-anchor="middle" x="318" y="-127.6" font-family="Times,serif" font-size="14.00">ComponentModule</text>
</g>
<!-- ApiComponent&#45;&gt;ComponentModule -->
<g id="edge1" class="edge">
<title>ApiComponent&#45;&gt;ComponentModule</title>
<path fill="none" stroke="black" d="M356.64,-84.91C356.64,-84.91 356.64,-103.79 356.64,-103.79"/>
<polygon fill="black" stroke="black" points="353.14,-103.79 356.64,-113.79 360.14,-103.79 353.14,-103.79"/>
</g>
<!-- ExamplesComponent -->
<g id="node2" class="node">
<title>ExamplesComponent</title>
<polygon fill="#ffffb3" stroke="black" points="315.04,-84.8 178.96,-84.8 178.96,-48.8 315.04,-48.8 315.04,-84.8"/>
<text text-anchor="middle" x="247" y="-62.6" font-family="Times,serif" font-size="14.00">ExamplesComponent</text>
</g>
<!-- ExamplesComponent&#45;&gt;ComponentModule -->
<g id="edge2" class="edge">
<title>ExamplesComponent&#45;&gt;ComponentModule</title>
<path fill="none" stroke="black" d="M285.41,-84.91C285.41,-84.91 285.41,-103.79 285.41,-103.79"/>
<polygon fill="black" stroke="black" points="281.91,-103.79 285.41,-113.79 288.91,-103.79 281.91,-103.79"/>
</g>
<!-- OverviewComponent -->
<g id="node3" class="node">
<title>OverviewComponent</title>
<polygon fill="#ffffb3" stroke="black" points="160.03,-84.8 23.97,-84.8 23.97,-48.8 160.03,-48.8 160.03,-84.8"/>
<text text-anchor="middle" x="92" y="-62.6" font-family="Times,serif" font-size="14.00">OverviewComponent</text>
</g>
<!-- OverviewComponent&#45;&gt;ComponentModule -->
<g id="edge3" class="edge">
<title>OverviewComponent&#45;&gt;ComponentModule</title>
<path fill="none" stroke="black" d="M125.12,-84.82C125.12,-102.17 125.12,-125.8 125.12,-125.8 125.12,-125.8 245.38,-125.8 245.38,-125.8"/>
<polygon fill="black" stroke="black" points="245.38,-129.3 255.38,-125.8 245.38,-122.3 245.38,-129.3"/>
</g>
<!-- ApiComponent  -->
<g id="node6" class="node">
<title>ApiComponent </title>
<polygon fill="#fb8072" stroke="black" points="511.83,-214.8 406.17,-214.8 406.17,-178.8 511.83,-178.8 511.83,-214.8"/>
<text text-anchor="middle" x="459" y="-192.6" font-family="Times,serif" font-size="14.00">ApiComponent </text>
</g>
<!-- ComponentModule&#45;&gt;ApiComponent  -->
<g id="edge5" class="edge">
<title>ComponentModule&#45;&gt;ApiComponent </title>
<path fill="none" stroke="black" stroke-dasharray="5,2" d="M380.65,-137.8C402.02,-137.8 420.62,-137.8 420.62,-137.8 420.62,-137.8 420.62,-168.78 420.62,-168.78"/>
<polygon fill="black" stroke="black" points="417.13,-168.78 420.62,-178.78 424.13,-168.78 417.13,-168.78"/>
</g>
<!-- ExamplesComponent  -->
<g id="node7" class="node">
<title>ExamplesComponent </title>
<polygon fill="#fb8072" stroke="black" points="388.04,-214.8 247.96,-214.8 247.96,-178.8 388.04,-178.8 388.04,-214.8"/>
<text text-anchor="middle" x="318" y="-192.6" font-family="Times,serif" font-size="14.00">ExamplesComponent </text>
</g>
<!-- ComponentModule&#45;&gt;ExamplesComponent  -->
<g id="edge6" class="edge">
<title>ComponentModule&#45;&gt;ExamplesComponent </title>
<path fill="none" stroke="black" stroke-dasharray="5,2" d="M318,-149.91C318,-149.91 318,-168.79 318,-168.79"/>
<polygon fill="black" stroke="black" points="314.5,-168.79 318,-178.79 321.5,-168.79 314.5,-168.79"/>
</g>
<!-- OverviewComponent  -->
<g id="node8" class="node">
<title>OverviewComponent </title>
<polygon fill="#fb8072" stroke="black" points="230.03,-214.8 89.97,-214.8 89.97,-178.8 230.03,-178.8 230.03,-214.8"/>
<text text-anchor="middle" x="160" y="-192.6" font-family="Times,serif" font-size="14.00">OverviewComponent </text>
</g>
<!-- ComponentModule&#45;&gt;OverviewComponent  -->
<g id="edge7" class="edge">
<title>ComponentModule&#45;&gt;OverviewComponent </title>
<path fill="none" stroke="black" stroke-dasharray="5,2" d="M255.54,-137.8C229.13,-137.8 204.37,-137.8 204.37,-137.8 204.37,-137.8 204.37,-168.78 204.37,-168.78"/>
<polygon fill="black" stroke="black" points="200.87,-168.78 204.37,-178.78 207.87,-168.78 200.87,-168.78"/>
</g>
<!-- ReactiveInputModule -->
<g id="node5" class="node">
<title>ReactiveInputModule</title>
<polygon fill="#8dd3c7" stroke="black" points="597.08,-84.8 594.08,-88.8 573.08,-88.8 570.08,-84.8 458.92,-84.8 458.92,-48.8 597.08,-48.8 597.08,-84.8"/>
<text text-anchor="middle" x="528" y="-62.6" font-family="Times,serif" font-size="14.00">ReactiveInputModule</text>
</g>
<!-- ReactiveInputModule&#45;&gt;ComponentModule -->
<g id="edge4" class="edge">
<title>ReactiveInputModule&#45;&gt;ComponentModule</title>
<path fill="none" stroke="black" d="M485.44,-84.82C485.44,-102.17 485.44,-125.8 485.44,-125.8 485.44,-125.8 390.82,-125.8 390.82,-125.8"/>
<polygon fill="black" stroke="black" points="390.82,-122.3 380.82,-125.8 390.82,-129.3 390.82,-122.3"/>
</g>
</g>
</svg>
