<?xml version="1.0" encoding="UTF-8" standalone="no"?>
<!DOCTYPE svg PUBLIC "-//W3C//DTD SVG 1.1//EN"
 "http://www.w3.org/Graphics/SVG/1.1/DTD/svg11.dtd">
<!-- Generated by graphviz version 5.0.0 (20220707.1540)
 -->
<!-- Title: dependencies Pages: 1 -->
<svg width="266pt" height="247pt"
 viewBox="0.00 0.00 266.00 246.80" xmlns="http://www.w3.org/2000/svg" xmlns:xlink="http://www.w3.org/1999/xlink">
<g id="graph0" class="graph" transform="scale(1 1) rotate(0) translate(4 242.8)">
<title>dependencies</title>
<polygon fill="white" stroke="transparent" points="-4,4 -4,-242.8 262,-242.8 262,4 -4,4"/>
<text text-anchor="middle" x="129" y="-8.2" font-family="sans-serif" font-size="14.00">dependencies</text>
<g id="clust1" class="cluster">
<title>cluster_PhoneModule</title>
<polygon fill="none" stroke="black" stroke-dasharray="1,5" points="8,-32.8 8,-230.8 250,-230.8 250,-32.8 8,-32.8"/>
</g>
<g id="clust2" class="cluster">
<title>cluster_PhoneModule_declarations</title>
<polygon fill="none" stroke="black" points="16,-40.8 16,-92.8 242,-92.8 242,-40.8 16,-40.8"/>
</g>
<g id="clust6" class="cluster">
<title>cluster_PhoneModule_exports</title>
<polygon fill="none" stroke="black" points="61,-170.8 61,-222.8 197,-222.8 197,-170.8 61,-170.8"/>
</g>
<!-- PhoneComponent -->
<g id="node1" class="node">
<title>PhoneComponent</title>
<polygon fill="#ffffb3" stroke="black" points="234.33,-84.8 117.67,-84.8 117.67,-48.8 234.33,-48.8 234.33,-84.8"/>
<text text-anchor="middle" x="176" y="-62.6" font-family="Times,serif" font-size="14.00">PhoneComponent</text>
</g>
<!-- PhoneModule -->
<g id="node3" class="node">
<title>PhoneModule</title>
<polygon fill="#8dd3c7" stroke="black" points="176.05,-149.8 173.05,-153.8 152.05,-153.8 149.05,-149.8 81.95,-149.8 81.95,-113.8 176.05,-113.8 176.05,-149.8"/>
<text text-anchor="middle" x="129" y="-127.6" font-family="Times,serif" font-size="14.00">PhoneModule</text>
</g>
<!-- PhoneComponent&#45;&gt;PhoneModule -->
<g id="edge1" class="edge">
<title>PhoneComponent&#45;&gt;PhoneModule</title>
<path fill="none" stroke="black" d="M147.06,-84.91C147.06,-84.91 147.06,-103.79 147.06,-103.79"/>
<polygon fill="black" stroke="black" points="143.56,-103.79 147.06,-113.79 150.56,-103.79 143.56,-103.79"/>
</g>
<!-- PhonePipe -->
<g id="node2" class="node">
<title>PhonePipe</title>
<polygon fill="#ffffb3" stroke="black" points="99.89,-84.8 24.11,-84.8 24.11,-48.8 99.89,-48.8 99.89,-84.8"/>
<text text-anchor="middle" x="62" y="-62.6" font-family="Times,serif" font-size="14.00">PhonePipe</text>
</g>
<!-- PhonePipe&#45;&gt;PhoneModule -->
<g id="edge2" class="edge">
<title>PhonePipe&#45;&gt;PhoneModule</title>
<path fill="none" stroke="black" d="M90.83,-84.91C90.83,-84.91 90.83,-103.79 90.83,-103.79"/>
<polygon fill="black" stroke="black" points="87.33,-103.79 90.83,-113.79 94.33,-103.79 87.33,-103.79"/>
</g>
<!-- PhoneComponent  -->
<g id="node4" class="node">
<title>PhoneComponent </title>
<polygon fill="#fb8072" stroke="black" points="188.83,-214.8 69.17,-214.8 69.17,-178.8 188.83,-178.8 188.83,-214.8"/>
<text text-anchor="middle" x="129" y="-192.6" font-family="Times,serif" font-size="14.00">PhoneComponent </text>
</g>
<!-- PhoneModule&#45;&gt;PhoneComponent  -->
<g id="edge3" class="edge">
<title>PhoneModule&#45;&gt;PhoneComponent </title>
<path fill="none" stroke="black" stroke-dasharray="5,2" d="M129,-149.91C129,-149.91 129,-168.79 129,-168.79"/>
<polygon fill="black" stroke="black" points="125.5,-168.79 129,-178.79 132.5,-168.79 125.5,-168.79"/>
</g>
</g>
</svg>
