<?xml version="1.0" encoding="UTF-8" standalone="no"?>
<!DOCTYPE svg PUBLIC "-//W3C//DTD SVG 1.1//EN"
 "http://www.w3.org/Graphics/SVG/1.1/DTD/svg11.dtd">
<!-- Generated by graphviz version 5.0.0 (20220707.1540)
 -->
<!-- Title: dependencies Pages: 1 -->
<svg width="1241pt" height="247pt"
 viewBox="0.00 0.00 1241.00 246.80" xmlns="http://www.w3.org/2000/svg" xmlns:xlink="http://www.w3.org/1999/xlink">
<g id="graph0" class="graph" transform="scale(1 1) rotate(0) translate(4 242.8)">
<title>dependencies</title>
<polygon fill="white" stroke="transparent" points="-4,4 -4,-242.8 1237,-242.8 1237,4 -4,4"/>
<text text-anchor="middle" x="616.5" y="-8.2" font-family="sans-serif" font-size="14.00">dependencies</text>
<g id="clust1" class="cluster">
<title>cluster_AppModule</title>
<polygon fill="none" stroke="black" stroke-dasharray="1,5" points="8,-32.8 8,-230.8 1225,-230.8 1225,-32.8 8,-32.8"/>
</g>
<g id="clust2" class="cluster">
<title>cluster_AppModule_declarations</title>
<polygon fill="none" stroke="black" points="444,-40.8 444,-92.8 1217,-92.8 1217,-40.8 444,-40.8"/>
</g>
<g id="clust8" class="cluster">
<title>cluster_AppModule_imports</title>
<polygon fill="none" stroke="black" points="16,-40.8 16,-92.8 436,-92.8 436,-40.8 16,-40.8"/>
</g>
<g id="clust10" class="cluster">
<title>cluster_AppModule_bootstrap</title>
<polygon fill="none" stroke="black" points="552,-170.8 552,-222.8 676,-222.8 676,-170.8 552,-170.8"/>
</g>
<!-- AppComponent -->
<g id="node1" class="node">
<title>AppComponent</title>
<polygon fill="#ffffb3" stroke="black" points="1208.94,-84.8 1103.06,-84.8 1103.06,-48.8 1208.94,-48.8 1208.94,-84.8"/>
<text text-anchor="middle" x="1156" y="-62.6" font-family="Times,serif" font-size="14.00">AppComponent</text>
</g>
<!-- AppModule -->
<g id="node6" class="node">
<title>AppModule</title>
<polygon fill="#8dd3c7" stroke="black" points="655.66,-149.8 652.66,-153.8 631.66,-153.8 628.66,-149.8 572.34,-149.8 572.34,-113.8 655.66,-113.8 655.66,-149.8"/>
<text text-anchor="middle" x="614" y="-127.6" font-family="Times,serif" font-size="14.00">AppModule</text>
</g>
<!-- AppComponent&#45;&gt;AppModule -->
<g id="edge1" class="edge">
<title>AppComponent&#45;&gt;AppModule</title>
<path fill="none" stroke="black" d="M1156,-85.09C1156,-107.01 1156,-140.8 1156,-140.8 1156,-140.8 666.08,-140.8 666.08,-140.8"/>
<polygon fill="black" stroke="black" points="666.08,-137.3 656.08,-140.8 666.08,-144.3 666.08,-137.3"/>
</g>
<!-- ComponentComponent -->
<g id="node2" class="node">
<title>ComponentComponent</title>
<polygon fill="#ffffb3" stroke="black" points="1085.16,-84.8 938.84,-84.8 938.84,-48.8 1085.16,-48.8 1085.16,-84.8"/>
<text text-anchor="middle" x="1012" y="-62.6" font-family="Times,serif" font-size="14.00">ComponentComponent</text>
</g>
<!-- ComponentComponent&#45;&gt;AppModule -->
<g id="edge2" class="edge">
<title>ComponentComponent&#45;&gt;AppModule</title>
<path fill="none" stroke="black" d="M1012,-84.91C1012,-104.14 1012,-131.8 1012,-131.8 1012,-131.8 665.84,-131.8 665.84,-131.8"/>
<polygon fill="black" stroke="black" points="665.84,-128.3 655.84,-131.8 665.84,-135.3 665.84,-128.3"/>
</g>
<!-- ComponentsComponent -->
<g id="node3" class="node">
<title>ComponentsComponent</title>
<polygon fill="#ffffb3" stroke="black" points="921.11,-84.8 768.89,-84.8 768.89,-48.8 921.11,-48.8 921.11,-84.8"/>
<text text-anchor="middle" x="845" y="-62.6" font-family="Times,serif" font-size="14.00">ComponentsComponent</text>
</g>
<!-- ComponentsComponent&#45;&gt;AppModule -->
<g id="edge3" class="edge">
<title>ComponentsComponent&#45;&gt;AppModule</title>
<path fill="none" stroke="black" d="M845,-84.83C845,-101.2 845,-122.8 845,-122.8 845,-122.8 665.83,-122.8 665.83,-122.8"/>
<polygon fill="black" stroke="black" points="665.83,-119.3 655.83,-122.8 665.83,-126.3 665.83,-119.3"/>
</g>
<!-- HomeComponent -->
<g id="node4" class="node">
<title>HomeComponent</title>
<polygon fill="#ffffb3" stroke="black" points="750.55,-84.8 635.45,-84.8 635.45,-48.8 750.55,-48.8 750.55,-84.8"/>
<text text-anchor="middle" x="693" y="-62.6" font-family="Times,serif" font-size="14.00">HomeComponent</text>
</g>
<!-- HomeComponent&#45;&gt;AppModule -->
<g id="edge4" class="edge">
<title>HomeComponent&#45;&gt;AppModule</title>
<path fill="none" stroke="black" d="M645.53,-84.91C645.53,-84.91 645.53,-103.79 645.53,-103.79"/>
<polygon fill="black" stroke="black" points="642.03,-103.79 645.53,-113.79 649.03,-103.79 642.03,-103.79"/>
</g>
<!-- PageNotFoundComponent -->
<g id="node5" class="node">
<title>PageNotFoundComponent</title>
<polygon fill="#ffffb3" stroke="black" points="617.83,-84.8 452.17,-84.8 452.17,-48.8 617.83,-48.8 617.83,-84.8"/>
<text text-anchor="middle" x="535" y="-62.6" font-family="Times,serif" font-size="14.00">PageNotFoundComponent</text>
</g>
<!-- PageNotFoundComponent&#45;&gt;AppModule -->
<g id="edge5" class="edge">
<title>PageNotFoundComponent&#45;&gt;AppModule</title>
<path fill="none" stroke="black" d="M594.92,-84.91C594.92,-84.91 594.92,-103.79 594.92,-103.79"/>
<polygon fill="black" stroke="black" points="591.42,-103.79 594.92,-113.79 598.42,-103.79 591.42,-103.79"/>
</g>
<!-- AppComponent  -->
<g id="node10" class="node">
<title>AppComponent </title>
<polygon fill="#80b1d3" stroke="black" points="668.44,-214.8 559.56,-214.8 559.56,-178.8 668.44,-178.8 668.44,-214.8"/>
<text text-anchor="middle" x="614" y="-192.6" font-family="Times,serif" font-size="14.00">AppComponent </text>
</g>
<!-- AppModule&#45;&gt;AppComponent  -->
<g id="edge9" class="edge">
<title>AppModule&#45;&gt;AppComponent </title>
<path fill="none" stroke="black" stroke-dasharray="1,5" d="M614,-149.91C614,-149.91 614,-168.79 614,-168.79"/>
<polygon fill="black" stroke="black" points="610.5,-168.79 614,-178.79 617.5,-168.79 610.5,-168.79"/>
</g>
<!-- AppRoutingModule -->
<g id="node7" class="node">
<title>AppRoutingModule</title>
<polygon fill="#8dd3c7" stroke="black" points="428.28,-84.8 425.28,-88.8 404.28,-88.8 401.28,-84.8 299.72,-84.8 299.72,-48.8 428.28,-48.8 428.28,-84.8"/>
<text text-anchor="middle" x="364" y="-62.6" font-family="Times,serif" font-size="14.00">AppRoutingModule</text>
</g>
<!-- AppRoutingModule&#45;&gt;AppModule -->
<g id="edge6" class="edge">
<title>AppRoutingModule&#45;&gt;AppModule</title>
<path fill="none" stroke="black" d="M364,-84.83C364,-101.2 364,-122.8 364,-122.8 364,-122.8 562.16,-122.8 562.16,-122.8"/>
<polygon fill="black" stroke="black" points="562.16,-126.3 572.16,-122.8 562.16,-119.3 562.16,-126.3"/>
</g>
<!-- ReactiveInputModule -->
<g id="node8" class="node">
<title>ReactiveInputModule</title>
<polygon fill="#8dd3c7" stroke="black" points="282.08,-84.8 279.08,-88.8 258.08,-88.8 255.08,-84.8 143.92,-84.8 143.92,-48.8 282.08,-48.8 282.08,-84.8"/>
<text text-anchor="middle" x="213" y="-62.6" font-family="Times,serif" font-size="14.00">ReactiveInputModule</text>
</g>
<!-- ReactiveInputModule&#45;&gt;AppModule -->
<g id="edge7" class="edge">
<title>ReactiveInputModule&#45;&gt;AppModule</title>
<path fill="none" stroke="black" d="M213,-84.91C213,-104.14 213,-131.8 213,-131.8 213,-131.8 562.22,-131.8 562.22,-131.8"/>
<polygon fill="black" stroke="black" points="562.22,-135.3 572.22,-131.8 562.22,-128.3 562.22,-135.3"/>
</g>
<!-- SidebarModule -->
<g id="node9" class="node">
<title>SidebarModule</title>
<polygon fill="#8dd3c7" stroke="black" points="126.32,-84.8 123.32,-88.8 102.32,-88.8 99.32,-84.8 23.68,-84.8 23.68,-48.8 126.32,-48.8 126.32,-84.8"/>
<text text-anchor="middle" x="75" y="-62.6" font-family="Times,serif" font-size="14.00">SidebarModule</text>
</g>
<!-- SidebarModule&#45;&gt;AppModule -->
<g id="edge8" class="edge">
<title>SidebarModule&#45;&gt;AppModule</title>
<path fill="none" stroke="black" d="M75,-85.09C75,-107.01 75,-140.8 75,-140.8 75,-140.8 562.15,-140.8 562.15,-140.8"/>
<polygon fill="black" stroke="black" points="562.15,-144.3 572.15,-140.8 562.15,-137.3 562.15,-144.3"/>
</g>
</g>
</svg>
