<?xml version="1.0" encoding="UTF-8" standalone="no"?>
<!DOCTYPE svg PUBLIC "-//W3C//DTD SVG 1.1//EN"
 "http://www.w3.org/Graphics/SVG/1.1/DTD/svg11.dtd">
<!-- Generated by graphviz version 5.0.0 (20220707.1540)
 -->
<!-- Title: dependencies Pages: 1 -->
<svg width="292pt" height="247pt"
 viewBox="0.00 0.00 292.00 246.80" xmlns="http://www.w3.org/2000/svg" xmlns:xlink="http://www.w3.org/1999/xlink">
<g id="graph0" class="graph" transform="scale(1 1) rotate(0) translate(4 242.8)">
<title>dependencies</title>
<polygon fill="white" stroke="transparent" points="-4,4 -4,-242.8 288,-242.8 288,4 -4,4"/>
<text text-anchor="middle" x="142" y="-8.2" font-family="sans-serif" font-size="14.00">dependencies</text>
<g id="clust1" class="cluster">
<title>cluster_FileModule</title>
<polygon fill="none" stroke="black" stroke-dasharray="1,5" points="8,-32.8 8,-230.8 276,-230.8 276,-32.8 8,-32.8"/>
</g>
<g id="clust4" class="cluster">
<title>cluster_FileModule_imports</title>
<polygon fill="none" stroke="black" points="144,-40.8 144,-92.8 268,-92.8 268,-40.8 144,-40.8"/>
</g>
<g id="clust2" class="cluster">
<title>cluster_FileModule_declarations</title>
<polygon fill="none" stroke="black" points="16,-40.8 16,-92.8 136,-92.8 136,-40.8 16,-40.8"/>
</g>
<g id="clust5" class="cluster">
<title>cluster_FileModule_exports</title>
<polygon fill="none" stroke="black" points="80,-170.8 80,-222.8 202,-222.8 202,-170.8 80,-170.8"/>
</g>
<!-- FileComponent -->
<g id="node1" class="node">
<title>FileComponent</title>
<polygon fill="#ffffb3" stroke="black" points="127.61,-84.8 24.39,-84.8 24.39,-48.8 127.61,-48.8 127.61,-84.8"/>
<text text-anchor="middle" x="76" y="-62.6" font-family="Times,serif" font-size="14.00">FileComponent</text>
</g>
<!-- FileModule -->
<g id="node2" class="node">
<title>FileModule</title>
<polygon fill="#8dd3c7" stroke="black" points="181.83,-149.8 178.83,-153.8 157.83,-153.8 154.83,-149.8 100.17,-149.8 100.17,-113.8 181.83,-113.8 181.83,-149.8"/>
<text text-anchor="middle" x="141" y="-127.6" font-family="Times,serif" font-size="14.00">FileModule</text>
</g>
<!-- FileComponent&#45;&gt;FileModule -->
<g id="edge1" class="edge">
<title>FileComponent&#45;&gt;FileModule</title>
<path fill="none" stroke="black" d="M113.94,-84.91C113.94,-84.91 113.94,-103.79 113.94,-103.79"/>
<polygon fill="black" stroke="black" points="110.44,-103.79 113.94,-113.79 117.44,-103.79 110.44,-103.79"/>
</g>
<!-- FileComponent  -->
<g id="node4" class="node">
<title>FileComponent </title>
<polygon fill="#fb8072" stroke="black" points="194.11,-214.8 87.89,-214.8 87.89,-178.8 194.11,-178.8 194.11,-214.8"/>
<text text-anchor="middle" x="141" y="-192.6" font-family="Times,serif" font-size="14.00">FileComponent </text>
</g>
<!-- FileModule&#45;&gt;FileComponent  -->
<g id="edge3" class="edge">
<title>FileModule&#45;&gt;FileComponent </title>
<path fill="none" stroke="black" stroke-dasharray="5,2" d="M141,-149.91C141,-149.91 141,-168.79 141,-168.79"/>
<polygon fill="black" stroke="black" points="137.5,-168.79 141,-178.79 144.5,-168.79 137.5,-168.79"/>
</g>
<!-- MessageModule -->
<g id="node3" class="node">
<title>MessageModule</title>
<polygon fill="#8dd3c7" stroke="black" points="260.04,-84.8 257.04,-88.8 236.04,-88.8 233.04,-84.8 151.96,-84.8 151.96,-48.8 260.04,-48.8 260.04,-84.8"/>
<text text-anchor="middle" x="206" y="-62.6" font-family="Times,serif" font-size="14.00">MessageModule</text>
</g>
<!-- MessageModule&#45;&gt;FileModule -->
<g id="edge2" class="edge">
<title>MessageModule&#45;&gt;FileModule</title>
<path fill="none" stroke="black" d="M166.7,-84.91C166.7,-84.91 166.7,-103.79 166.7,-103.79"/>
<polygon fill="black" stroke="black" points="163.2,-103.79 166.7,-113.79 170.2,-103.79 163.2,-103.79"/>
</g>
</g>
</svg>
