<?xml version="1.0" encoding="UTF-8" standalone="no"?>
<!DOCTYPE svg PUBLIC "-//W3C//DTD SVG 1.1//EN"
 "http://www.w3.org/Graphics/SVG/1.1/DTD/svg11.dtd">
<!-- Generated by graphviz version 5.0.0 (20220707.1540)
 -->
<!-- Title: dependencies Pages: 1 -->
<svg width="904pt" height="247pt"
 viewBox="0.00 0.00 904.00 246.80" xmlns="http://www.w3.org/2000/svg" xmlns:xlink="http://www.w3.org/1999/xlink">
<g id="graph0" class="graph" transform="scale(1 1) rotate(0) translate(4 242.8)">
<title>dependencies</title>
<polygon fill="white" stroke="transparent" points="-4,4 -4,-242.8 900,-242.8 900,4 -4,4"/>
<text text-anchor="middle" x="448" y="-8.2" font-family="sans-serif" font-size="14.00">dependencies</text>
<g id="clust1" class="cluster">
<title>cluster_TableModule</title>
<polygon fill="none" stroke="black" stroke-dasharray="1,5" points="8,-32.8 8,-230.8 888,-230.8 888,-32.8 8,-32.8"/>
</g>
<g id="clust2" class="cluster">
<title>cluster_TableModule_declarations</title>
<polygon fill="none" stroke="black" points="659,-40.8 659,-92.8 880,-92.8 880,-40.8 659,-40.8"/>
</g>
<g id="clust5" class="cluster">
<title>cluster_TableModule_imports</title>
<polygon fill="none" stroke="black" points="16,-40.8 16,-92.8 651,-92.8 651,-40.8 16,-40.8"/>
</g>
<g id="clust6" class="cluster">
<title>cluster_TableModule_exports</title>
<polygon fill="none" stroke="black" points="402,-170.8 402,-222.8 534,-222.8 534,-170.8 402,-170.8"/>
</g>
<!-- OrderPipe -->
<g id="node1" class="node">
<title>OrderPipe</title>
<polygon fill="#ffffb3" stroke="black" points="871.54,-84.8 798.46,-84.8 798.46,-48.8 871.54,-48.8 871.54,-84.8"/>
<text text-anchor="middle" x="835" y="-62.6" font-family="Times,serif" font-size="14.00">OrderPipe</text>
</g>
<!-- TableModule -->
<g id="node3" class="node">
<title>TableModule</title>
<polygon fill="#8dd3c7" stroke="black" points="513.92,-149.8 510.92,-153.8 489.92,-153.8 486.92,-149.8 422.08,-149.8 422.08,-113.8 513.92,-113.8 513.92,-149.8"/>
<text text-anchor="middle" x="468" y="-127.6" font-family="Times,serif" font-size="14.00">TableModule</text>
</g>
<!-- OrderPipe&#45;&gt;TableModule -->
<g id="edge1" class="edge">
<title>OrderPipe&#45;&gt;TableModule</title>
<path fill="none" stroke="black" d="M835,-85.09C835,-107.01 835,-140.8 835,-140.8 835,-140.8 523.74,-140.8 523.74,-140.8"/>
<polygon fill="black" stroke="black" points="523.74,-137.3 513.74,-140.8 523.74,-144.3 523.74,-137.3"/>
</g>
<!-- TableComponent -->
<g id="node2" class="node">
<title>TableComponent</title>
<polygon fill="#ffffb3" stroke="black" points="780.7,-84.8 667.3,-84.8 667.3,-48.8 780.7,-48.8 780.7,-84.8"/>
<text text-anchor="middle" x="724" y="-62.6" font-family="Times,serif" font-size="14.00">TableComponent</text>
</g>
<!-- TableComponent&#45;&gt;TableModule -->
<g id="edge2" class="edge">
<title>TableComponent&#45;&gt;TableModule</title>
<path fill="none" stroke="black" d="M724,-84.91C724,-104.14 724,-131.8 724,-131.8 724,-131.8 523.77,-131.8 523.77,-131.8"/>
<polygon fill="black" stroke="black" points="523.77,-128.3 513.77,-131.8 523.77,-135.3 523.77,-128.3"/>
</g>
<!-- TableComponent  -->
<g id="node9" class="node">
<title>TableComponent </title>
<polygon fill="#fb8072" stroke="black" points="526.2,-214.8 409.8,-214.8 409.8,-178.8 526.2,-178.8 526.2,-214.8"/>
<text text-anchor="middle" x="468" y="-192.6" font-family="Times,serif" font-size="14.00">TableComponent </text>
</g>
<!-- TableModule&#45;&gt;TableComponent  -->
<g id="edge8" class="edge">
<title>TableModule&#45;&gt;TableComponent </title>
<path fill="none" stroke="black" stroke-dasharray="5,2" d="M468,-149.91C468,-149.91 468,-168.79 468,-168.79"/>
<polygon fill="black" stroke="black" points="464.5,-168.79 468,-178.79 471.5,-168.79 464.5,-168.79"/>
</g>
<!-- CheckboxModule -->
<g id="node4" class="node">
<title>CheckboxModule</title>
<polygon fill="#8dd3c7" stroke="black" points="643.32,-84.8 640.32,-88.8 619.32,-88.8 616.32,-84.8 526.68,-84.8 526.68,-48.8 643.32,-48.8 643.32,-84.8"/>
<text text-anchor="middle" x="585" y="-62.6" font-family="Times,serif" font-size="14.00">CheckboxModule</text>
</g>
<!-- CheckboxModule&#45;&gt;TableModule -->
<g id="edge3" class="edge">
<title>CheckboxModule&#45;&gt;TableModule</title>
<path fill="none" stroke="black" d="M585,-84.83C585,-101.2 585,-122.8 585,-122.8 585,-122.8 523.91,-122.8 523.91,-122.8"/>
<polygon fill="black" stroke="black" points="523.91,-119.3 513.91,-122.8 523.91,-126.3 523.91,-119.3"/>
</g>
<!-- FileModule -->
<g id="node5" class="node">
<title>FileModule</title>
<polygon fill="#8dd3c7" stroke="black" points="508.83,-84.8 505.83,-88.8 484.83,-88.8 481.83,-84.8 427.17,-84.8 427.17,-48.8 508.83,-48.8 508.83,-84.8"/>
<text text-anchor="middle" x="468" y="-62.6" font-family="Times,serif" font-size="14.00">FileModule</text>
</g>
<!-- FileModule&#45;&gt;TableModule -->
<g id="edge4" class="edge">
<title>FileModule&#45;&gt;TableModule</title>
<path fill="none" stroke="black" d="M468,-84.91C468,-84.91 468,-103.79 468,-103.79"/>
<polygon fill="black" stroke="black" points="464.5,-103.79 468,-113.79 471.5,-103.79 464.5,-103.79"/>
</g>
<!-- FilterCardModule -->
<g id="node6" class="node">
<title>FilterCardModule</title>
<polygon fill="#8dd3c7" stroke="black" points="409.6,-84.8 406.6,-88.8 385.6,-88.8 382.6,-84.8 292.4,-84.8 292.4,-48.8 409.6,-48.8 409.6,-84.8"/>
<text text-anchor="middle" x="351" y="-62.6" font-family="Times,serif" font-size="14.00">FilterCardModule</text>
</g>
<!-- FilterCardModule&#45;&gt;TableModule -->
<g id="edge5" class="edge">
<title>FilterCardModule&#45;&gt;TableModule</title>
<path fill="none" stroke="black" d="M351,-84.83C351,-101.2 351,-122.8 351,-122.8 351,-122.8 412.09,-122.8 412.09,-122.8"/>
<polygon fill="black" stroke="black" points="412.09,-126.3 422.09,-122.8 412.09,-119.3 412.09,-126.3"/>
</g>
<!-- ReactiveInputModule -->
<g id="node7" class="node">
<title>ReactiveInputModule</title>
<polygon fill="#8dd3c7" stroke="black" points="274.08,-84.8 271.08,-88.8 250.08,-88.8 247.08,-84.8 135.92,-84.8 135.92,-48.8 274.08,-48.8 274.08,-84.8"/>
<text text-anchor="middle" x="205" y="-62.6" font-family="Times,serif" font-size="14.00">ReactiveInputModule</text>
</g>
<!-- ReactiveInputModule&#45;&gt;TableModule -->
<g id="edge6" class="edge">
<title>ReactiveInputModule&#45;&gt;TableModule</title>
<path fill="none" stroke="black" d="M205,-84.91C205,-104.14 205,-131.8 205,-131.8 205,-131.8 412.19,-131.8 412.19,-131.8"/>
<polygon fill="black" stroke="black" points="412.19,-135.3 422.19,-131.8 412.19,-128.3 412.19,-135.3"/>
</g>
<!-- SelectModule -->
<g id="node8" class="node">
<title>SelectModule</title>
<polygon fill="#8dd3c7" stroke="black" points="117.76,-84.8 114.76,-88.8 93.76,-88.8 90.76,-84.8 24.24,-84.8 24.24,-48.8 117.76,-48.8 117.76,-84.8"/>
<text text-anchor="middle" x="71" y="-62.6" font-family="Times,serif" font-size="14.00">SelectModule</text>
</g>
<!-- SelectModule&#45;&gt;TableModule -->
<g id="edge7" class="edge">
<title>SelectModule&#45;&gt;TableModule</title>
<path fill="none" stroke="black" d="M71,-85.09C71,-107.01 71,-140.8 71,-140.8 71,-140.8 412.07,-140.8 412.07,-140.8"/>
<polygon fill="black" stroke="black" points="412.07,-144.3 422.07,-140.8 412.07,-137.3 412.07,-144.3"/>
</g>
</g>
</svg>
