<?xml version="1.0" encoding="UTF-8" standalone="no"?>
<!DOCTYPE svg PUBLIC "-//W3C//DTD SVG 1.1//EN"
 "http://www.w3.org/Graphics/SVG/1.1/DTD/svg11.dtd">
<!-- Generated by graphviz version 5.0.0 (20220707.1540)
 -->
<!-- Title: dependencies Pages: 1 -->
<svg width="1501pt" height="247pt"
 viewBox="0.00 0.00 1501.00 246.80" xmlns="http://www.w3.org/2000/svg" xmlns:xlink="http://www.w3.org/1999/xlink">
<g id="graph0" class="graph" transform="scale(1 1) rotate(0) translate(4 242.8)">
<title>dependencies</title>
<polygon fill="white" stroke="transparent" points="-4,4 -4,-242.8 1497,-242.8 1497,4 -4,4"/>
<text text-anchor="middle" x="746.5" y="-8.2" font-family="sans-serif" font-size="14.00">dependencies</text>
<g id="clust1" class="cluster">
<title>cluster_CalendarModule</title>
<polygon fill="none" stroke="black" stroke-dasharray="1,5" points="8,-32.8 8,-230.8 1485,-230.8 1485,-32.8 8,-32.8"/>
</g>
<g id="clust2" class="cluster">
<title>cluster_CalendarModule_declarations</title>
<polygon fill="none" stroke="black" points="1329,-40.8 1329,-92.8 1477,-92.8 1477,-40.8 1329,-40.8"/>
</g>
<g id="clust4" class="cluster">
<title>cluster_CalendarModule_imports</title>
<polygon fill="none" stroke="black" points="16,-40.8 16,-92.8 1321,-92.8 1321,-40.8 16,-40.8"/>
</g>
<g id="clust5" class="cluster">
<title>cluster_CalendarModule_exports</title>
<polygon fill="none" stroke="black" points="672,-170.8 672,-222.8 824,-222.8 824,-170.8 672,-170.8"/>
</g>
<!-- CalendarComponent -->
<g id="node1" class="node">
<title>CalendarComponent</title>
<polygon fill="#ffffb3" stroke="black" points="1468.86,-84.8 1337.14,-84.8 1337.14,-48.8 1468.86,-48.8 1468.86,-84.8"/>
<text text-anchor="middle" x="1403" y="-62.6" font-family="Times,serif" font-size="14.00">CalendarComponent</text>
</g>
<!-- CalendarModule -->
<g id="node2" class="node">
<title>CalendarModule</title>
<polygon fill="#8dd3c7" stroke="black" points="803.08,-149.8 800.08,-153.8 779.08,-153.8 776.08,-149.8 692.92,-149.8 692.92,-113.8 803.08,-113.8 803.08,-149.8"/>
<text text-anchor="middle" x="748" y="-127.6" font-family="Times,serif" font-size="14.00">CalendarModule</text>
</g>
<!-- CalendarComponent&#45;&gt;CalendarModule -->
<g id="edge1" class="edge">
<title>CalendarComponent&#45;&gt;CalendarModule</title>
<path fill="none" stroke="black" d="M1403,-85.05C1403,-107.82 1403,-143.8 1403,-143.8 1403,-143.8 813.28,-143.8 813.28,-143.8"/>
<polygon fill="black" stroke="black" points="813.28,-140.3 803.28,-143.8 813.28,-147.3 813.28,-140.3"/>
</g>
<!-- CalendarComponent  -->
<g id="node13" class="node">
<title>CalendarComponent </title>
<polygon fill="#fb8072" stroke="black" points="815.86,-214.8 680.14,-214.8 680.14,-178.8 815.86,-178.8 815.86,-214.8"/>
<text text-anchor="middle" x="748" y="-192.6" font-family="Times,serif" font-size="14.00">CalendarComponent </text>
</g>
<!-- CalendarModule&#45;&gt;CalendarComponent  -->
<g id="edge12" class="edge">
<title>CalendarModule&#45;&gt;CalendarComponent </title>
<path fill="none" stroke="black" stroke-dasharray="5,2" d="M748,-149.91C748,-149.91 748,-168.79 748,-168.79"/>
<polygon fill="black" stroke="black" points="744.5,-168.79 748,-178.79 751.5,-168.79 744.5,-168.79"/>
</g>
<!-- ChipModule -->
<g id="node3" class="node">
<title>ChipModule</title>
<polygon fill="#8dd3c7" stroke="black" points="1313.28,-84.8 1310.28,-88.8 1289.28,-88.8 1286.28,-84.8 1226.72,-84.8 1226.72,-48.8 1313.28,-48.8 1313.28,-84.8"/>
<text text-anchor="middle" x="1270" y="-62.6" font-family="Times,serif" font-size="14.00">ChipModule</text>
</g>
<!-- ChipModule&#45;&gt;CalendarModule -->
<g id="edge2" class="edge">
<title>ChipModule&#45;&gt;CalendarModule</title>
<path fill="none" stroke="black" d="M1270,-85.08C1270,-106.12 1270,-137.8 1270,-137.8 1270,-137.8 813.37,-137.8 813.37,-137.8"/>
<polygon fill="black" stroke="black" points="813.37,-134.3 803.37,-137.8 813.37,-141.3 813.37,-134.3"/>
</g>
<!-- ColorPickerModule -->
<g id="node4" class="node">
<title>ColorPickerModule</title>
<polygon fill="#8dd3c7" stroke="black" points="1208.71,-84.8 1205.71,-88.8 1184.71,-88.8 1181.71,-84.8 1081.29,-84.8 1081.29,-48.8 1208.71,-48.8 1208.71,-84.8"/>
<text text-anchor="middle" x="1145" y="-62.6" font-family="Times,serif" font-size="14.00">ColorPickerModule</text>
</g>
<!-- ColorPickerModule&#45;&gt;CalendarModule -->
<g id="edge3" class="edge">
<title>ColorPickerModule&#45;&gt;CalendarModule</title>
<path fill="none" stroke="black" d="M1145,-84.91C1145,-104.14 1145,-131.8 1145,-131.8 1145,-131.8 813.2,-131.8 813.2,-131.8"/>
<polygon fill="black" stroke="black" points="813.2,-128.3 803.2,-131.8 813.2,-135.3 813.2,-128.3"/>
</g>
<!-- DatePickerModule -->
<g id="node5" class="node">
<title>DatePickerModule</title>
<polygon fill="#8dd3c7" stroke="black" points="1063.75,-84.8 1060.75,-88.8 1039.75,-88.8 1036.75,-84.8 942.25,-84.8 942.25,-48.8 1063.75,-48.8 1063.75,-84.8"/>
<text text-anchor="middle" x="1003" y="-62.6" font-family="Times,serif" font-size="14.00">DatePickerModule</text>
</g>
<!-- DatePickerModule&#45;&gt;CalendarModule -->
<g id="edge4" class="edge">
<title>DatePickerModule&#45;&gt;CalendarModule</title>
<path fill="none" stroke="black" d="M1003,-84.82C1003,-102.17 1003,-125.8 1003,-125.8 1003,-125.8 813.33,-125.8 813.33,-125.8"/>
<polygon fill="black" stroke="black" points="813.33,-122.3 803.33,-125.8 813.33,-129.3 813.33,-122.3"/>
</g>
<!-- DialogModule -->
<g id="node6" class="node">
<title>DialogModule</title>
<polygon fill="#8dd3c7" stroke="black" points="923.66,-84.8 920.66,-88.8 899.66,-88.8 896.66,-84.8 826.34,-84.8 826.34,-48.8 923.66,-48.8 923.66,-84.8"/>
<text text-anchor="middle" x="875" y="-62.6" font-family="Times,serif" font-size="14.00">DialogModule</text>
</g>
<!-- DialogModule&#45;&gt;CalendarModule -->
<g id="edge5" class="edge">
<title>DialogModule&#45;&gt;CalendarModule</title>
<path fill="none" stroke="black" d="M875,-85.04C875,-100.37 875,-119.8 875,-119.8 875,-119.8 813.33,-119.8 813.33,-119.8"/>
<polygon fill="black" stroke="black" points="813.33,-116.3 803.33,-119.8 813.33,-123.3 813.33,-116.3"/>
</g>
<!-- EventCardModule -->
<g id="node7" class="node">
<title>EventCardModule</title>
<polygon fill="#8dd3c7" stroke="black" points="807.92,-84.8 804.92,-88.8 783.92,-88.8 780.92,-84.8 688.08,-84.8 688.08,-48.8 807.92,-48.8 807.92,-84.8"/>
<text text-anchor="middle" x="748" y="-62.6" font-family="Times,serif" font-size="14.00">EventCardModule</text>
</g>
<!-- EventCardModule&#45;&gt;CalendarModule -->
<g id="edge6" class="edge">
<title>EventCardModule&#45;&gt;CalendarModule</title>
<path fill="none" stroke="black" d="M748,-84.91C748,-84.91 748,-103.79 748,-103.79"/>
<polygon fill="black" stroke="black" points="744.5,-103.79 748,-113.79 751.5,-103.79 744.5,-103.79"/>
</g>
<!-- ReactiveInputModule -->
<g id="node8" class="node">
<title>ReactiveInputModule</title>
<polygon fill="#8dd3c7" stroke="black" points="670.08,-84.8 667.08,-88.8 646.08,-88.8 643.08,-84.8 531.92,-84.8 531.92,-48.8 670.08,-48.8 670.08,-84.8"/>
<text text-anchor="middle" x="601" y="-62.6" font-family="Times,serif" font-size="14.00">ReactiveInputModule</text>
</g>
<!-- ReactiveInputModule&#45;&gt;CalendarModule -->
<g id="edge7" class="edge">
<title>ReactiveInputModule&#45;&gt;CalendarModule</title>
<path fill="none" stroke="black" d="M601,-85.04C601,-100.37 601,-119.8 601,-119.8 601,-119.8 682.84,-119.8 682.84,-119.8"/>
<polygon fill="black" stroke="black" points="682.84,-123.3 692.84,-119.8 682.84,-116.3 682.84,-123.3"/>
</g>
<!-- SelectModule -->
<g id="node9" class="node">
<title>SelectModule</title>
<polygon fill="#8dd3c7" stroke="black" points="513.76,-84.8 510.76,-88.8 489.76,-88.8 486.76,-84.8 420.24,-84.8 420.24,-48.8 513.76,-48.8 513.76,-84.8"/>
<text text-anchor="middle" x="467" y="-62.6" font-family="Times,serif" font-size="14.00">SelectModule</text>
</g>
<!-- SelectModule&#45;&gt;CalendarModule -->
<g id="edge8" class="edge">
<title>SelectModule&#45;&gt;CalendarModule</title>
<path fill="none" stroke="black" d="M467,-84.82C467,-102.17 467,-125.8 467,-125.8 467,-125.8 682.82,-125.8 682.82,-125.8"/>
<polygon fill="black" stroke="black" points="682.82,-129.3 692.82,-125.8 682.82,-122.3 682.82,-129.3"/>
</g>
<!-- SwitcherModule -->
<g id="node10" class="node">
<title>SwitcherModule</title>
<polygon fill="#8dd3c7" stroke="black" points="401.82,-84.8 398.82,-88.8 377.82,-88.8 374.82,-84.8 292.18,-84.8 292.18,-48.8 401.82,-48.8 401.82,-84.8"/>
<text text-anchor="middle" x="347" y="-62.6" font-family="Times,serif" font-size="14.00">SwitcherModule</text>
</g>
<!-- SwitcherModule&#45;&gt;CalendarModule -->
<g id="edge9" class="edge">
<title>SwitcherModule&#45;&gt;CalendarModule</title>
<path fill="none" stroke="black" d="M347,-84.91C347,-104.14 347,-131.8 347,-131.8 347,-131.8 682.66,-131.8 682.66,-131.8"/>
<polygon fill="black" stroke="black" points="682.66,-135.3 692.66,-131.8 682.66,-128.3 682.66,-135.3"/>
</g>
<!-- TimePickerModule -->
<g id="node11" class="node">
<title>TimePickerModule</title>
<polygon fill="#8dd3c7" stroke="black" points="274.36,-84.8 271.36,-88.8 250.36,-88.8 247.36,-84.8 149.64,-84.8 149.64,-48.8 274.36,-48.8 274.36,-84.8"/>
<text text-anchor="middle" x="212" y="-62.6" font-family="Times,serif" font-size="14.00">TimePickerModule</text>
</g>
<!-- TimePickerModule&#45;&gt;CalendarModule -->
<g id="edge10" class="edge">
<title>TimePickerModule&#45;&gt;CalendarModule</title>
<path fill="none" stroke="black" d="M212,-85.08C212,-106.12 212,-137.8 212,-137.8 212,-137.8 682.66,-137.8 682.66,-137.8"/>
<polygon fill="black" stroke="black" points="682.66,-141.3 692.66,-137.8 682.66,-134.3 682.66,-141.3"/>
</g>
<!-- WindowModule -->
<g id="node12" class="node">
<title>WindowModule</title>
<polygon fill="#8dd3c7" stroke="black" points="131.77,-84.8 128.77,-88.8 107.77,-88.8 104.77,-84.8 24.23,-84.8 24.23,-48.8 131.77,-48.8 131.77,-84.8"/>
<text text-anchor="middle" x="78" y="-62.6" font-family="Times,serif" font-size="14.00">WindowModule</text>
</g>
<!-- WindowModule&#45;&gt;CalendarModule -->
<g id="edge11" class="edge">
<title>WindowModule&#45;&gt;CalendarModule</title>
<path fill="none" stroke="black" d="M78,-85.05C78,-107.82 78,-143.8 78,-143.8 78,-143.8 682.89,-143.8 682.89,-143.8"/>
<polygon fill="black" stroke="black" points="682.89,-147.3 692.89,-143.8 682.89,-140.3 682.89,-147.3"/>
</g>
</g>
</svg>
