<?xml version="1.0" encoding="UTF-8" standalone="no"?>
<!DOCTYPE svg PUBLIC "-//W3C//DTD SVG 1.1//EN"
 "http://www.w3.org/Graphics/SVG/1.1/DTD/svg11.dtd">
<!-- Generated by graphviz version 5.0.0 (20220707.1540)
 -->
<!-- Title: dependencies Pages: 1 -->
<svg width="204pt" height="247pt"
 viewBox="0.00 0.00 204.00 246.80" xmlns="http://www.w3.org/2000/svg" xmlns:xlink="http://www.w3.org/1999/xlink">
<g id="graph0" class="graph" transform="scale(1 1) rotate(0) translate(4 242.8)">
<title>dependencies</title>
<polygon fill="white" stroke="transparent" points="-4,4 -4,-242.8 200,-242.8 200,4 -4,4"/>
<text text-anchor="middle" x="98" y="-8.2" font-family="sans-serif" font-size="14.00">dependencies</text>
<g id="clust1" class="cluster">
<title>cluster_InputChipsModule</title>
<polygon fill="none" stroke="black" stroke-dasharray="1,5" points="8,-32.8 8,-230.8 188,-230.8 188,-32.8 8,-32.8"/>
</g>
<g id="clust5" class="cluster">
<title>cluster_InputChipsModule_exports</title>
<polygon fill="none" stroke="black" points="16,-170.8 16,-222.8 180,-222.8 180,-170.8 16,-170.8"/>
</g>
<g id="clust2" class="cluster">
<title>cluster_InputChipsModule_declarations</title>
<polygon fill="none" stroke="black" points="18,-40.8 18,-92.8 178,-92.8 178,-40.8 18,-40.8"/>
</g>
<!-- InputChipsComponent -->
<g id="node1" class="node">
<title>InputChipsComponent</title>
<polygon fill="#ffffb3" stroke="black" points="169.56,-84.8 26.44,-84.8 26.44,-48.8 169.56,-48.8 169.56,-84.8"/>
<text text-anchor="middle" x="98" y="-62.6" font-family="Times,serif" font-size="14.00">InputChipsComponent</text>
</g>
<!-- InputChipsModule -->
<g id="node2" class="node">
<title>InputChipsModule</title>
<polygon fill="#8dd3c7" stroke="black" points="158.78,-149.8 155.78,-153.8 134.78,-153.8 131.78,-149.8 37.22,-149.8 37.22,-113.8 158.78,-113.8 158.78,-149.8"/>
<text text-anchor="middle" x="98" y="-127.6" font-family="Times,serif" font-size="14.00">InputChipsModule</text>
</g>
<!-- InputChipsComponent&#45;&gt;InputChipsModule -->
<g id="edge1" class="edge">
<title>InputChipsComponent&#45;&gt;InputChipsModule</title>
<path fill="none" stroke="black" d="M98,-84.91C98,-84.91 98,-103.79 98,-103.79"/>
<polygon fill="black" stroke="black" points="94.5,-103.79 98,-113.79 101.5,-103.79 94.5,-103.79"/>
</g>
<!-- InputChipsComponent  -->
<g id="node3" class="node">
<title>InputChipsComponent </title>
<polygon fill="#fb8072" stroke="black" points="171.56,-214.8 24.44,-214.8 24.44,-178.8 171.56,-178.8 171.56,-214.8"/>
<text text-anchor="middle" x="98" y="-192.6" font-family="Times,serif" font-size="14.00">InputChipsComponent </text>
</g>
<!-- InputChipsModule&#45;&gt;InputChipsComponent  -->
<g id="edge2" class="edge">
<title>InputChipsModule&#45;&gt;InputChipsComponent </title>
<path fill="none" stroke="black" stroke-dasharray="5,2" d="M98,-149.91C98,-149.91 98,-168.79 98,-168.79"/>
<polygon fill="black" stroke="black" points="94.5,-168.79 98,-178.79 101.5,-168.79 94.5,-168.79"/>
</g>
</g>
</svg>
